<?xml version="1.0" standalone="no"?>
<!DOCTYPE svg PUBLIC "-//W3C//DTD SVG 20010904//EN"
 "http://www.w3.org/TR/2001/REC-SVG-20010904/DTD/svg10.dtd">
<svg version="1.0" xmlns="http://www.w3.org/2000/svg"
 width="260.000000pt" height="260.000000pt" viewBox="0 0 260.000000 260.000000"
 preserveAspectRatio="xMidYMid meet">
<metadata>
Created by potrace 1.11, written by Peter Selinger 2001-2013
</metadata>
<g transform="translate(0.000000,260.000000) scale(0.100000,-0.100000)"
fill="#000000" stroke="none">
<path d="M2040 2571 c-77 -25 -118 -62 -149 -132 l-21 -47 -62 33 c-130 69
-263 104 -413 110 -399 15 -766 -229 -921 -612 -122 -305 -86 -665 96 -934
l38 -55 -155 -360 c-190 -442 -174 -403 -180 -440 -11 -64 50 -127 117 -122
65 5 81 32 236 398 81 190 148 346 149 348 1 1 26 -14 56 -34 131 -88 293
-148 436 -160 42 -4 82 -7 87 -8 44 -4 203 20 274 40 360 105 617 400 689 792
10 52 9 257 0 320 -18 114 -70 256 -137 370 -26 45 -28 52 -13 52 10 0 40 16
66 36 88 64 120 178 76 274 -25 56 -53 86 -103 112 -43 22 -128 32 -166 19z
m102 -178 c22 -20 23 -61 1 -85 -34 -38 -103 -11 -103 40 0 54 62 81 102 45z
m-569 -93 c103 -22 224 -93 320 -187 143 -140 214 -307 222 -518 12 -318 -153
-590 -438 -720 -69 -31 -174 -62 -182 -53 -3 2 -6 340 -8 751 l-4 747 21 -5
c11 -3 43 -9 69 -15z m-397 -39 c-8 -21 -25 -62 -38 -92 -14 -30 -110 -253
-214 -496 -104 -243 -192 -439 -196 -435 -9 9 -48 116 -54 147 -2 11 -8 42
-13 70 -9 50 -7 205 4 260 20 104 75 226 140 315 67 91 188 190 285 231 19 9
46 21 60 27 38 17 40 15 26 -27z m88 -911 c1 -287 -1 -523 -5 -526 -11 -6
-137 35 -194 63 -62 32 -162 103 -170 122 -5 13 26 97 82 221 14 30 33 75 43
100 10 25 31 74 47 110 16 36 65 149 109 252 43 102 81 185 83 183 1 -2 4
-238 5 -525z"/>
</g>
</svg>
