<?xml version="1.0" encoding="UTF-8"?>
<svg width="92px" height="19px" viewBox="0 0 92 19" version="1.1" xmlns="http://www.w3.org/2000/svg" xmlns:xlink="http://www.w3.org/1999/xlink">
    <!-- Generator: Sketch 53.2 (72643) - https://sketchapp.com -->
    <title>logo_oursky--white</title>
    <desc>Created with Sketch.</desc>
    <defs>
        <polygon id="path-1" points="3.13888638e-16 0 92 0 92 19 3.13888638e-16 19"></polygon>
    </defs>
    <g id="logo_oursky--white" stroke="none" stroke-width="1" fill="none" fill-rule="evenodd">
        <g id="Group-2">
            <mask id="mask-2" fill="white">
                <use xlink:href="#path-1"></use>
            </mask>
            <g id="Clip-5"></g>
            <path d="M70.8756,5.46012535 L75.102581,0.345654839 C75.2833837,0.12682799 75.5535391,0 75.8386565,0 L78.4356161,0 C79.2481797,0 79.6871123,0.945243179 79.1593864,1.55815262 L73.6788117,7.92341908 C73.3780332,8.27268172 73.3741179,8.78609918 73.6697227,9.13980219 L79.7791218,16.4526708 C80.2934238,17.0682167 79.8522539,18 79.0464022,18 L76.1422318,18 C75.8545974,18 75.5824843,17.8709518 75.4016816,17.6489335 L70.8802145,12.0920914 C70.3164119,11.3989778 69.187828,11.7947255 69.187828,12.6854354 L69.187828,17.0554506 C69.187828,17.5771938 68.76176,18 68.2361315,18 L65.9518363,18 C65.426068,18 65,17.5771938 65,17.0554506 L65,0.944549372 C65,0.422944981 65.426068,0 65.9518363,0 L68.2361315,0 C68.76176,0 69.187828,0.422944981 69.187828,0.944549372 L69.187828,4.86109205 C69.187828,5.74819417 70.308861,6.14602333 70.8756,5.46012535" id="Fill-4" fill="#FFFFFF" mask="url(#mask-2)"></path>
            <path d="M91.0556927,0 L88.4348893,0 C88.1152521,0 87.817358,0.162350928 87.6435518,0.43127067 L85.1044581,4.36141198 C84.7328868,4.93643953 83.893216,4.93643953 83.5217831,4.36141198 L81.9230432,1.88701732 C81.7251396,1.6371079 81.5331911,1.61712625 81.3474747,1.84164232 L79.1294031,4.19351059 C78.9360696,4.42316083 78.9630754,4.71081337 79.1856304,5.05008518 L82.0791225,9.36834234 C82.1834063,9.52403272 82.2392181,9.70733663 82.2392181,9.89480338 L82.2392181,17.0554506 C82.2392181,17.5771938 82.6612002,18 83.1819263,18 L85.444315,18 C85.9649026,18 86.3868846,17.5771938 86.3868846,17.0554506 L86.3868846,9.89480338 C86.3868846,9.70733663 86.4426965,9.52403272 86.5469802,9.36834234 L91.8384438,1.47101041 C92.2587639,0.843531017 91.8100531,0 91.0556927,0" id="Fill-6" fill="#FFFFFF" mask="url(#mask-2)"></path>
            <path d="M9.50007037,0 C4.25321669,0 0,4.25321669 0,9.49992963 C0,14.7466426 4.25321669,19 9.50007037,19 C14.7467833,19 19,14.7466426 19,9.49992963 C19,4.25321669 14.7467833,0 9.50007037,0 Z M9.50007037,4.28417988 C12.375988,4.28417988 14.7158201,6.62387129 14.7158201,9.49992963 C14.7158201,12.375988 12.375988,14.7158201 9.50007037,14.7158201 C6.62401203,14.7158201 4.28417988,12.375988 4.28417988,9.49992963 C4.28417988,6.62387129 6.62401203,4.28417988 9.50007037,4.28417988 L9.50007037,4.28417988 Z" id="Fill-7" fill="#FFFFFF" mask="url(#mask-2)"></path>
            <path d="M35,11.0046895 C35,12.787569 34.7872127,14.9884496 33.0318543,16.8826337 C31.3298294,18.7215236 29.3616837,19 27.4999316,19 C25.6383163,19 23.6703073,18.7215236 21.9681457,16.8826337 C20.2127873,14.9884496 20,12.787569 20,11.0046895 L20,0.975097259 C20,0.436623541 20.4168224,0 20.930876,0 L23.1648691,0 C23.6789228,0 24.0957452,0.436623541 24.0957452,0.975097259 L24.0957452,10.8930984 C24.0957452,11.7008806 24.1490787,13.0660454 25.0266212,14.0132091 C25.7447099,14.8212778 26.7287828,14.9884496 27.4999316,14.9884496 C28.2713539,14.9884496 29.2554268,14.8212778 29.9733788,14.0132091 C30.851058,13.0660454 30.9042548,11.7008806 30.9042548,10.8930984 L30.9042548,0.975097259 C30.9042548,0.436623541 31.3210772,0 31.8351309,0 L34.069124,0 C34.5831776,0 35,0.436623541 35,0.975097259 L35,11.0046895" id="Fill-1" fill="#FFFFFF" mask="url(#mask-2)"></path>
            <path d="M41.1107756,7.23238693 C41.1107756,7.75413008 41.5289903,8.1769363 42.0450677,8.1769363 C42.792419,8.1769363 43.8067306,8.09617712 44.5008272,7.39446033 C44.7944148,7.09764953 45.1680218,6.53094766 45.1680218,5.64009898 C45.1680218,4.61465167 44.6876307,4.07500829 44.340651,3.80525598 C43.6733191,3.29253232 42.6054782,3.23869287 42.0716951,3.23869287 L42.0450677,3.23869287 C41.5289903,3.23869287 41.1107756,3.66149909 41.1107756,4.18310348 L41.1107756,7.23238693 Z M43.2461828,0 C45.5151387,0 46.9299592,0.755556241 47.7840947,1.56522946 C48.5315833,2.29386597 49.3323267,3.58948188 49.3323267,5.58625953 C49.3323267,6.71980203 49.0919938,8.12309685 47.9442708,9.25636183 C47.5717618,9.61672538 47.1008412,9.95710729 46.5674698,10.2233906 C46.0351964,10.48898 45.858138,11.1662748 46.2145882,11.6462507 L49.8110707,16.4883325 C50.2736188,17.1109552 49.8341295,18 49.0639939,18 L46.4082545,18 C46.0998434,18 45.8114714,17.8462523 45.6372953,17.5889885 L42.8160268,13.4215651 C42.2972044,12.6553242 41.1107756,13.0265112 41.1107756,13.955103 L41.1107756,17.0554506 C41.1107756,17.5771938 40.6924235,18 40.1764834,18 L37.9342921,18 C37.418352,18 37,17.5771938 37,17.0554506 L37,0.944549372 C37,0.422944981 37.418352,0 37.9342921,0 L43.2461828,0 L43.2461828,0 Z" id="Fill-2" fill="#FFFFFF" mask="url(#mask-2)"></path>
            <path d="M62.0773964,3.95494013 C61.8123785,4.41048151 61.2456927,4.54307909 60.820976,4.25349494 C59.8577557,3.5965342 59.0662744,3.54397173 58.6735768,3.54397173 C58.1332208,3.54397173 57.464259,3.62554868 57.00104,4.17079666 C56.7436961,4.44342065 56.5636216,4.85228656 56.5636216,5.31581743 C56.5636216,5.75173548 56.6922274,6.07888427 56.9494389,6.32445612 C57.3611892,6.73318186 57.9531463,6.89675625 59.1111276,7.36028712 L60.3975825,7.87820262 C61.1438136,8.17787876 62.0702516,8.587025 62.7392134,9.2685149 C63.7427884,10.2768733 64,11.5854684 64,12.6486319 C64,14.5295272 63.3823747,16.1649908 62.4818695,17.1464372 C60.963739,18.8364256 58.7507139,19 57.6185331,19 C56.383547,19 55.3027027,18.8090931 54.2219906,18.236793 C53.5928543,17.9034769 52.8971657,17.3728062 52.3167197,16.847602 C51.9585552,16.5235369 51.8953108,15.9630108 52.1723689,15.559331 L53.1673438,14.1097283 C53.4753626,13.6611953 54.0773753,13.5855053 54.4774822,13.9432104 C54.7858979,14.2189181 55.10384,14.4765442 55.3541714,14.6384366 C56.0231332,15.0747752 56.7180279,15.2927342 57.5155955,15.2927342 C58.0302833,15.2927342 58.7507139,15.1835444 59.3168704,14.6659093 C59.6513513,14.3659528 59.9344958,13.8752296 59.9344958,13.1937397 C59.9344958,12.5941071 59.7028201,12.2122933 59.3425387,11.8854249 C58.879452,11.4762787 57.8244082,11.0675529 57.3355209,10.8767862 L55.920328,10.3588707 C55.1224958,10.0589142 54.1961901,9.67724064 53.5272283,8.91417379 C52.6265908,7.9055351 52.4978527,6.62413226 52.4978527,5.75173548 C52.4978527,4.14346418 52.9610717,2.78048439 53.990315,1.6627961 C55.1997651,0.354341106 56.6407586,0 58.2361584,0 C59.2696356,0 60.8527305,0.16623756 62.5739576,1.26121886 C63.0033051,1.53440352 63.1389234,2.12941064 62.8762871,2.58116751 L62.0773964,3.95494013" id="Fill-3" fill="#FFFFFF" mask="url(#mask-2)"></path>
        </g>
    </g>
</svg>